<svg width="960" height="460" viewBox="0 0 960 460" xmlns="http://www.w3.org/2000/svg" role="img" aria-label="About Me (VSCode Light)">
  <rect x="0" y="0" width="960" height="460" fill="#F8FAFC"/>
  <rect x="20" y="20" width="920" height="36" rx="8" ry="8" fill="#E5E7EB" stroke="#CBD5E1" />
  <circle cx="40" cy="38" r="6" fill="#FF5F57"/>
  <circle cx="60" cy="38" r="6" fill="#FFBD2E"/>
  <circle cx="80" cy="38" r="6" fill="#28C840"/>
  <text x="100" y="42" font-family="Consolas, 'Fira Code', Menlo, monospace" font-size="14" fill="#0F172A">about.php — Aditya Dharma</text>
  <rect x="20" y="56" width="920" height="384" rx="8" ry="8" fill="#FFFFFF" stroke="#CBD5E1"/>

  <g font-family="Consolas, 'Fira Code', Menlo, monospace" font-size="13" fill="#94A3B8">
    <text x="36" y="86">1</text><text x="36" y="106">2</text><text x="36" y="126">3</text><text x="36" y="146">4</text>
    <text x="36" y="166">5</text><text x="36" y="186">6</text><text x="36" y="206">7</text><text x="36" y="226">8</text>
    <text x="36" y="246">9</text><text x="30" y="266">10</text><text x="30" y="286">11</text><text x="30" y="306">12</text>
    <text x="30" y="326">13</text><text x="30" y="346">14</text><text x="30" y="366">15</text><text x="30" y="386">16</text>
    <text x="30" y="406">17</text>
  </g>

  <g font-family="Consolas, 'Fira Code', Menlo, monospace" font-size="14">
    <text x="70" y="86"  fill="#4F46E5">&lt;?php</text>
    <text x="70" y="110" fill="#2563EB">return</text>
    <text x="140" y="110" fill="#0F172A">[</text>

    <text x="100" y="134" fill="#0284C7">'name'</text>
    <text x="170" y="134" fill="#64748B">=&gt;</text>
    <text x="210" y="134" fill="#B45309">'Aditya Dharma'</text>
    <text x="390" y="134" fill="#0F172A">,</text>

    <text x="100" y="158" fill="#0284C7">'role'</text>
    <text x="170" y="158" fill="#64748B">=&gt;</text>
    <text x="210" y="158" fill="#B45309">'Full-Stack Web Developer (backend-oriented)'</text>
    <text x="710" y="158" fill="#0F172A">,</text>

    <text x="100" y="182" fill="#0284C7">'mantra'</text>
    <text x="190" y="182" fill="#64748B">=&gt;</text>
    <text x="230" y="182" fill="#B45309">'Code. Learn. Improve. Repeat.'</text>
    <text x="550" y="182" fill="#0F172A">,</text>

    <text x="100" y="206" fill="#0284C7">'stack'</text>
    <text x="170" y="206" fill="#64748B">=&gt;</text>
    <text x="210" y="206" fill="#0F172A">[ 'backend' =&gt; ['Laravel','Node.js','Express'],</text>
    <text x="210" y="226" fill="#0F172A">  'frontend' =&gt; ['React','Tailwind CSS'],</text>
    <text x="210" y="246" fill="#0F172A">  'database' =&gt; ['MySQL','PostgreSQL'], ],</text>

    <text x="100" y="270" fill="#0284C7">'focus'</text>
    <text x="170" y="270" fill="#64748B">=&gt;</text>
    <text x="210" y="270" fill="#0F172A">[ 'clean_code','scalable_services','restful_api_design','product_mindset' ],</text>

    <text x="100" y="294" fill="#0284C7">'currently'</text>
    <text x="200" y="294" fill="#64748B">=&gt;</text>
    <text x="240" y="294" fill="#0F172A">[</text>
    <text x="260" y="314" fill="#0F172A">'building' =&gt; 'Modern web apps with Laravel + React',</text>
    <text x="260" y="334" fill="#0F172A">'learning' =&gt; ['System Design','Clean Architecture'],</text>
    <text x="260" y="354" fill="#0F172A">'fuel' =&gt; 'Love &amp; support from my wife and child',</text>
    <text x="240" y="374" fill="#0F172A">],</text>

    <text x="140" y="398" fill="#0F172A">];</text>
  </g>
</svg>