<svg width="960" height="460" viewBox="0 0 960 460" xmlns="http://www.w3.org/2000/svg" role="img" aria-label="About Me (VSCode)">
  <!-- Background -->
  <defs>
    <linearGradient id="bg" x1="0" y1="0" x2="1" y2="1">
      <stop offset="0%" stop-color="#0B1220"/>
      <stop offset="100%" stop-color="#0F172A"/>
    </linearGradient>
  </defs>
  <rect x="0" y="0" width="960" height="460" fill="url(#bg)"/>
  
  <!-- Window bar -->
  <rect x="20" y="20" width="920" height="36" rx="8" ry="8" fill="#0F1A2D" stroke="#1E293B" />
  <!-- macOS dots -->
  <circle cx="40" cy="38" r="6" fill="#FF5F57"/>
  <circle cx="60" cy="38" r="6" fill="#FFBD2E"/>
  <circle cx="80" cy="38" r="6" fill="#28C840"/>
  <!-- Title -->
  <text x="100" y="42" font-family="Consolas, 'Fira Code', Menlo, monospace" font-size="14" fill="#93C5FD">about.php — Aditya Dharma</text>

  <!-- Editor body -->
  <rect x="20" y="56" width="920" height="384" rx="8" ry="8" fill="#0B1220" stroke="#1E293B"/>

  <!-- Line numbers -->
  <g font-family="Consolas, 'Fira Code', Menlo, monospace" font-size="13" fill="#475569">
    <text x="36" y="86">1</text>
    <text x="36" y="106">2</text>
    <text x="36" y="126">3</text>
    <text x="36" y="146">4</text>
    <text x="36" y="166">5</text>
    <text x="36" y="186">6</text>
    <text x="36" y="206">7</text>
    <text x="36" y="226">8</text>
    <text x="36" y="246">9</text>
    <text x="30" y="266">10</text>
    <text x="30" y="286">11</text>
    <text x="30" y="306">12</text>
    <text x="30" y="326">13</text>
    <text x="30" y="346">14</text>
    <text x="30" y="366">15</text>
    <text x="30" y="386">16</text>
    <text x="30" y="406">17</text>
  </g>

  <!-- Code (wrapped) -->
  <g font-family="Consolas, 'Fira Code', Menlo, monospace" font-size="14">
    <text x="70" y="86"  fill="#A5B4FC">&lt;?php</text>
    <text x="70" y="110" fill="#93C5FD">return</text>
    <text x="140" y="110" fill="#E2E8F0">[</text>

    <text x="100" y="134" fill="#38BDF8">'name'</text>
    <text x="170" y="134" fill="#94A3B8">=&gt;</text>
    <text x="210" y="134" fill="#FDE68A">'Aditya Dharma'</text>
    <text x="390" y="134" fill="#E2E8F0">,</text>

    <text x="100" y="158" fill="#38BDF8">'role'</text>
    <text x="170" y="158" fill="#94A3B8">=&gt;</text>
    <text x="210" y="158" fill="#FDE68A">'Full-Stack Web Developer (backend-oriented)'</text>
    <text x="710" y="158" fill="#E2E8F0">,</text>

    <text x="100" y="182" fill="#38BDF8">'mantra'</text>
    <text x="190" y="182" fill="#94A3B8">=&gt;</text>
    <text x="230" y="182" fill="#FDE68A">'Code. Learn. Improve. Repeat.'</text>
    <text x="550" y="182" fill="#E2E8F0">,</text>

    <text x="100" y="206" fill="#38BDF8">'stack'</text>
    <text x="170" y="206" fill="#94A3B8">=&gt;</text>
    <text x="210" y="206" fill="#E2E8F0">[ 'backend' =&gt; ['Laravel','Node.js','Express'],</text>
    <text x="210" y="226" fill="#E2E8F0">  'frontend' =&gt; ['React','Tailwind CSS'],</text>
    <text x="210" y="246" fill="#E2E8F0">  'database' =&gt; ['MySQL','PostgreSQL'], ],</text>

    <text x="100" y="270" fill="#38BDF8">'focus'</text>
    <text x="170" y="270" fill="#94A3B8">=&gt;</text>
    <text x="210" y="270" fill="#E2E8F0">[ 'clean_code','scalable_services','restful_api_design','product_mindset' ],</text>

    <text x="100" y="294" fill="#38BDF8">'currently'</text>
    <text x="200" y="294" fill="#94A3B8">=&gt;</text>
    <text x="240" y="294" fill="#E2E8F0">[</text>
    <text x="260" y="314" fill="#E2E8F0">'building' =&gt; 'Modern web apps with Laravel + React',</text>
    <text x="260" y="334" fill="#E2E8F0">'learning' =&gt; ['System Design','Clean Architecture'],</text>
    <text x="260" y="354" fill="#E2E8F0">'fuel' =&gt; 'Love &amp; support from my wife and child',</text>
    <text x="240" y="374" fill="#E2E8F0">],</text>

    <text x="140" y="398" fill="#E2E8F0">];</text>
  </g>
</svg>