<svg width="900" height="420" viewBox="0 0 900 420" xmlns="http://www.w3.org/2000/svg" role="img" aria-label="About Me (VSCode Light)">
  <defs>
    <filter id="softL" x="-10%" y="-10%" width="120%" height="120%">
      <feDropShadow dx="0" dy="8" stdDeviation="10" flood-color="#000" flood-opacity=".15"/>
    </filter>
  </defs>

  <rect width="900" height="420" fill="#f8fafc"/>

  <g filter="url(#softL)">
    <rect x="16" y="16" width="868" height="388" rx="10" fill="#ffffff" stroke="#cbd5e1"/>
    <rect x="16" y="16" width="868" height="36" rx="10" fill="#e5e7eb" stroke="#cbd5e1"/>
    <circle cx="36" cy="34" r="6" fill="#ff5f57"/>
    <circle cx="56" cy="34" r="6" fill="#ffbd2e"/>
    <circle cx="76" cy="34" r="6" fill="#28c840"/>
    <text x="96" y="37" font-family="JetBrains Mono, Fira Code, Consolas, monospace" font-size="13" fill="#0f172a">about.php — Aditya Dharma</text>

    <rect x="16" y="52" width="868" height="352" rx="10" fill="#ffffff" stroke="#cbd5e1"/>
    <rect x="16" y="52" width="64" height="352" rx="10" fill="#f1f5f9" stroke="#cbd5e1"/>

    <g font-family="JetBrains Mono, Fira Code, Consolas, monospace" font-size="13" fill="#94a3b8" text-anchor="end">
      <text x="70" y="82">1</text><text x="70" y="104">2</text><text x="70" y="126">3</text><text x="70" y="148">4</text>
      <text x="70" y="170">5</text><text x="70" y="192">6</text><text x="70" y="214">7</text><text x="70" y="236">8</text>
      <text x="70" y="258">9</text><text x="70" y="280">10</text><text x="70" y="302">11</text><text x="70" y="324">12</text>
      <text x="70" y="346">13</text><text x="70" y="368">14</text><text x="70" y="390">15</text>
    </g>

    <g font-family="JetBrains Mono, Fira Code, Consolas, monospace" font-size="14" xml:space="preserve">
      <style>
        .k{fill:#2563eb;} .s{fill:#b45309;} .p{fill:#0f172a;} .id{fill:#0284c7;} .op{fill:#64748b;}
      </style>

      <text x="92" y="82"><tspan class="p">&lt;?php</tspan></text>

      <text x="92"  y="106"><tspan class="k">return</tspan><tspan class="p"> [</tspan></text>

      <text x="120" y="128"><tspan class="id">'name'     </tspan><tspan class="op">=&gt; </tspan><tspan class="s">'Aditya Dharma'</tspan><tspan class="p">,</tspan></text>
      <text x="120" y="150"><tspan class="id">'role'     </tspan><tspan class="op">=&gt; </tspan><tspan class="s">'Full-Stack Web Developer (backend-oriented)'</tspan><tspan class="p">,</tspan></text>
      <text x="120" y="172"><tspan class="id">'mantra'   </tspan><tspan class="op">=&gt; </tspan><tspan class="s">'Code. Learn. Improve. Repeat.'</tspan><tspan class="p">,</tspan></text>

      <text x="120" y="194"><tspan class="id">'stack'    </tspan><tspan class="op">=&gt; </tspan><tspan class="p">[</tspan></text>
      <text x="148" y="216"><tspan class="p"> 'backend'  =&gt; ['Laravel','Node.js','Express'],</tspan></text>
      <text x="148" y="238"><tspan class="p"> 'frontend' =&gt; ['React','Tailwind CSS'],</tspan></text>
      <text x="148" y="260"><tspan class="p"> 'database' =&gt; ['MySQL','PostgreSQL'],</tspan></text>
      <text x="120" y="282"><tspan class="p">],</tspan></text>

      <text x="120" y="304"><tspan class="id">'focus'    </tspan><tspan class="op">=&gt; </tspan><tspan class="p">['clean_code','scalable_services','restful_api_design','product_mindset'],</tspan></text>

      <text x="120" y="326"><tspan class="id">'currently'</tspan><tspan class="op">=&gt; </tspan><tspan class="p">[ 'building' =&gt; 'Modern web apps with Laravel + React',</tspan></text>
      <text x="148" y="348"><tspan class="p">             'learning' =&gt; ['System Design','Clean Architecture'],</tspan></text>
      <text x="148" y="370"><tspan class="p">             'fuel'     =&gt; 'Love &amp; support from my wife and child', ],</tspan></text>

      <text x="92"  y="392"><tspan class="p">];</tspan></text>
    </g>
  </g>
</svg>
